<?xml version="1.0" encoding="UTF-8"?>
<svg version="1.1" xmlns="http://www.w3.org/2000/svg" width="200" height="200">
<path d="M0 0 C1.24233358 0.8025891 2.47594773 1.61876568 3.70263672 2.44506836 C7.19709906 4.73255153 10.83777086 6.76018215 14.4609375 8.83544922 C17.59817175 10.63865809 20.71767371 12.46939823 23.83349609 14.30932617 C29.18734626 17.4683515 34.56418641 20.58531675 39.95068359 23.68823242 C45.82989267 27.08422387 51.68708008 30.51433928 57.51318359 34.00073242 C58.14748291 34.3794751 58.78178223 34.75821777 59.43530273 35.1484375 C63.76443623 37.75198506 63.76443623 37.75198506 64.88818359 38.87573242 C65.83722275 43.42711036 66.06346372 47.35743328 64.88818359 51.87573242 C60.96946326 55.52458392 56.7252237 57.57346011 51.88818359 59.87573242 C51.00517578 60.4403418 50.12216797 61.00495117 49.21240234 61.58666992 C46.88818359 62.87573242 46.88818359 62.87573242 42.88818359 62.87573242 C42.94071289 62.16215576 42.99324219 61.4485791 43.04736328 60.71337891 C43.07433797 54.70441658 43.07433797 54.70441658 39.89404297 49.84887695 C37.04960186 48.01294848 34.16463086 46.45573822 31.13818359 44.93823242 C30.06737549 44.35976563 28.99656738 43.78129883 27.89331055 43.18530273 C25.67317868 41.98600952 23.44489273 40.80169692 21.20898438 39.63208008 C16.09040426 36.92489986 11.089323 34.02111361 6.07568359 31.12573242 C3.64317405 29.74305916 1.2098633 28.36182204 -1.22436523 26.98217773 C-2.8896939 26.00594316 -4.50564606 24.94651265 -6.11181641 23.87573242 C-9.28599009 24.25871043 -11.78072518 25.64709543 -14.54931641 27.18823242 C-15.97244141 27.97713867 -15.97244141 27.97713867 -17.42431641 28.78198242 C-20.41508994 30.47032232 -23.38853612 32.18805476 -26.36181641 33.90698242 C-27.29582275 34.44540771 -28.2298291 34.98383301 -29.19213867 35.53857422 C-31.08079654 36.62903489 -32.96676117 37.724175 -34.84985352 38.82421875 C-35.72907471 39.33235107 -36.6082959 39.8404834 -37.51416016 40.36401367 C-38.30298584 40.82332275 -39.09181152 41.28263184 -39.90454102 41.75585938 C-41.98769808 42.81276032 -43.83012695 43.41874401 -46.11181641 43.87573242 C-43.55799257 46.99707267 -41.01559541 48.004109 -37.11181641 48.87573242 C-34.17233962 47.91938824 -34.17233962 47.91938824 -31.38134766 46.07885742 C-30.33140625 45.44979492 -29.28146484 44.82073242 -28.19970703 44.17260742 C-27.11882812 43.49713867 -26.03794922 42.82166992 -24.92431641 42.12573242 C-23.83183594 41.46573242 -22.73935547 40.80573242 -21.61376953 40.12573242 C-17.73373964 37.77332982 -13.88732246 35.39273646 -10.11181641 32.87573242 C-5.27594287 33.15882652 -1.89755573 34.851903 2.24755859 37.26245117 C2.83684143 37.6019429 3.42612427 37.94143463 4.03326416 38.29121399 C5.90667519 39.37334827 7.77236622 40.46806823 9.63818359 41.56323242 C10.87468444 42.27955351 12.11166026 42.99505538 13.34912109 43.7097168 C15.75143326 45.09958488 18.14756615 46.49922533 20.53857422 47.90844727 C22.67459074 49.16296776 24.81842654 50.40433311 26.97216797 51.62817383 C27.87773437 52.14943848 28.78330078 52.67070313 29.71630859 53.20776367 C30.50424805 53.65482666 31.2921875 54.10188965 32.10400391 54.5625 C33.88818359 55.87573242 33.88818359 55.87573242 34.88818359 58.87573242 C35.00954917 61.66144021 35.0763875 64.42121422 35.09130859 67.20776367 C35.09700867 68.03596115 35.10270874 68.86415863 35.10858154 69.717453 C35.11803359 71.47682419 35.12456634 73.2362131 35.12841797 74.99560547 C35.13800949 77.64022676 35.16898108 80.28403173 35.20068359 82.9284668 C35.31698263 101.38672244 31.95594327 116.70991037 20.88818359 131.87573242 C20.18693359 132.86573242 19.48568359 133.85573242 18.76318359 134.87573242 C12.62979806 141.98172602 2.1721602 150.32801243 -7.42822266 151.16479492 C-19.19725353 150.24124425 -29.36085419 139.85803934 -36.79931641 131.43041992 C-48.79133334 117.22559033 -50.36303735 99.68450618 -50.11181641 81.87573242 C-47.76806641 81.28198242 -47.76806641 81.28198242 -45.11181641 80.87573242 C-43.44514974 81.87573242 -41.77848307 82.87573242 -40.11181641 83.87573242 C-35.80840351 83.64923701 -31.99623907 81.62753088 -28.11181641 79.87573242 C-26.3306279 81.65692093 -26.90955685 84.06944982 -26.82202148 86.44970703 C-26.37909255 98.41132643 -24.78420898 109.20327169 -17.11181641 118.87573242 C-14.26989026 121.46690038 -11.30344493 123.73379506 -8.11181641 125.87573242 C0.1593913 122.25707905 5.5011543 114.92894704 8.82568359 106.62573242 C9.84580591 103.02530071 10.45594059 99.57638189 10.88818359 95.87573242 C10.99912354 94.93874512 11.11006348 94.00175781 11.22436523 93.03637695 C13.06682095 79.86277921 13.06682095 79.86277921 9.36181641 67.7097168 C4.30562988 63.20228348 -1.780333 60.98622689 -8.11181641 58.87573242 C-9.90045629 59.54640335 -9.90045629 59.54640335 -11.70166016 60.71948242 C-12.39815674 61.13866943 -13.09465332 61.55785645 -13.81225586 61.98974609 C-14.55048584 62.44712158 -15.28871582 62.90449707 -16.04931641 63.37573242 C-17.18469849 64.05889526 -17.18469849 64.05889526 -18.34301758 64.75585938 C-21.24630714 66.50372999 -24.13684289 68.27130881 -27.01708984 70.05688477 C-28.64754306 71.06758307 -30.28566517 72.06588049 -31.92431641 73.06323242 C-32.83826172 73.63428711 -33.75220703 74.2053418 -34.69384766 74.79370117 C-37.60787242 76.09771549 -38.15867031 75.90393894 -41.11181641 74.87573242 C-43.1808652 73.80761899 -45.22079476 72.68249653 -47.24072266 71.52416992 C-47.83046371 71.18704987 -48.42020477 70.84992981 -49.02781677 70.50259399 C-50.27727255 69.78699238 -51.52537846 69.06902942 -52.7722168 68.34887695 C-54.64069824 67.27014129 -56.51350068 66.19926737 -58.38720703 65.12963867 C-61.40495648 63.40249385 -64.40491035 61.64701528 -67.39816284 59.87780762 C-69.06104881 58.90541925 -70.74068121 57.96184708 -72.4206543 57.01928711 C-79.73510159 52.74269255 -79.73510159 52.74269255 -81.53759766 48.59448242 C-81.24675324 40.33048936 -81.24675324 40.33048936 -78.54541016 36.86791992 C-75.85742664 34.87717721 -73.09014393 33.40368527 -70.11181641 31.87573242 C-68.7199569 31.11341855 -67.33082193 30.34611762 -65.94384766 29.57495117 C-63.51081026 28.22611029 -61.07490755 26.88449198 -58.62768555 25.56152344 C-51.66831534 21.79241932 -44.85520863 17.80224244 -38.0647583 13.74023438 C-36.30759053 12.69316285 -34.5454579 11.65503234 -32.78125 10.61987305 C-27.9630463 7.78798294 -23.17739162 4.96386793 -18.54931641 1.82885742 C-11.80847098 -2.59646273 -7.33675148 -4.37872905 0 0 Z " fill="#CB9933" transform="translate(106.11181640625,9.124267578125)"/>
<path d="M0 0 C3.30163015 0.54606753 5.84153482 1.25539438 8.69921875 2.99609375 C9.67665039 3.58680664 9.67665039 3.58680664 10.67382812 4.18945312 C11.33833984 4.60130859 12.00285156 5.01316406 12.6875 5.4375 C13.36361328 5.84548828 14.03972656 6.25347656 14.73632812 6.67382812 C17.38927078 8.29199116 19.79481382 9.79481382 22 12 C22.27124023 14.29980469 22.27124023 14.29980469 22.30859375 17.171875 C22.34291504 18.74739136 22.34291504 18.74739136 22.37792969 20.35473633 C22.39758789 21.47517334 22.41724609 22.59561035 22.4375 23.75 C23.11945471 46.68153899 29.02252252 66.10949483 45.9609375 82.41796875 C52.90706258 88.31949662 61.98035487 94.82575789 71.125 96.35546875 C84.24863007 95.17981022 96.53298598 85.56201947 105 76 C118.89930289 59.29795702 122.29811683 40.7488332 122.53417969 19.62963867 C122.55383789 18.6832251 122.57349609 17.73681152 122.59375 16.76171875 C122.60083984 15.91569092 122.60792969 15.06966309 122.61523438 14.19799805 C123.09248765 11.47165841 123.84882533 10.69531291 126 9 C128.58104413 7.29063056 131.29709014 5.82026199 134 4.3125 C134.72445312 3.89677734 135.44890625 3.48105469 136.1953125 3.05273438 C137.24332031 2.46395508 137.24332031 2.46395508 138.3125 1.86328125 C138.94800781 1.50532471 139.58351562 1.14736816 140.23828125 0.77856445 C142 0 142 0 145 0 C145.66482576 34.17204405 146.02124971 66.26225295 121 93 C120.34 93 119.68 93 119 93 C118.77828125 93.56203125 118.5565625 94.1240625 118.328125 94.703125 C110.84131933 107.6508948 90.69230489 116.23591114 77 120 C63.80994279 122.09365988 49.39651669 113.42452243 39 106 C17.90360145 90.1368166 4.38988086 68.49424745 0.26989746 42.26727295 C-0.6441331 34.58896154 -0.29777962 26.7786054 -0.1875 19.0625 C-0.17240962 17.20378702 -0.158729 15.34506203 -0.14648438 13.48632812 C-0.11386108 8.99058188 -0.06232553 4.49542853 0 0 Z " fill="#024397" transform="translate(26,72)"/>
<path d="M0 0 C3.30163015 0.54606753 5.84153482 1.25539438 8.69921875 2.99609375 C9.67665039 3.58680664 9.67665039 3.58680664 10.67382812 4.18945312 C11.33833984 4.60130859 12.00285156 5.01316406 12.6875 5.4375 C13.36361328 5.84548828 14.03972656 6.25347656 14.73632812 6.67382812 C17.38927078 8.29199116 19.79481382 9.79481382 22 12 C22.27124023 14.29980469 22.27124023 14.29980469 22.30859375 17.171875 C22.34291504 18.74739136 22.34291504 18.74739136 22.37792969 20.35473633 C22.39758789 21.47517334 22.41724609 22.59561035 22.4375 23.75 C23.11945471 46.68153899 29.02252252 66.10949483 45.9609375 82.41796875 C52.90706258 88.31949662 61.98035487 94.82575789 71.125 96.35546875 C84.24863007 95.17981022 96.53298598 85.56201947 105 76 C118.89930289 59.29795702 122.29811683 40.7488332 122.53417969 19.62963867 C122.55383789 18.6832251 122.57349609 17.73681152 122.59375 16.76171875 C122.60083984 15.91569092 122.60792969 15.06966309 122.61523438 14.19799805 C123.09248765 11.47165841 123.84882533 10.69531291 126 9 C128.58104413 7.29063056 131.29709014 5.82026199 134 4.3125 C134.72445312 3.89677734 135.44890625 3.48105469 136.1953125 3.05273438 C137.24332031 2.46395508 137.24332031 2.46395508 138.3125 1.86328125 C138.94800781 1.50532471 139.58351562 1.14736816 140.23828125 0.77856445 C142 0 142 0 145 0 C145.66482576 34.17204405 146.02124971 66.26225295 121 93 C120.34 93 119.68 93 119 93 C118.77828125 93.56203125 118.5565625 94.1240625 118.328125 94.703125 C110.84131933 107.6508948 90.69230489 116.23591114 77 120 C63.80994279 122.09365988 49.39651669 113.42452243 39 106 C17.90360145 90.1368166 4.38988086 68.49424745 0.26989746 42.26727295 C-0.6441331 34.58896154 -0.29777962 26.7786054 -0.1875 19.0625 C-0.17240962 17.20378702 -0.158729 15.34506203 -0.14648438 13.48632812 C-0.11386108 8.99058188 -0.06232553 4.49542853 0 0 Z M2 3 C1.95064176 8.23273331 1.91430051 13.46533176 1.89013672 18.69824219 C1.88006569 20.47919067 1.86640815 22.26012257 1.84912109 24.04101562 C1.82492087 26.59769783 1.81352816 29.15416185 1.8046875 31.7109375 C1.79436493 32.50994476 1.78404236 33.30895203 1.77340698 34.13217163 C1.77300774 36.0895722 1.87758931 38.04643077 2 40 C2.66 40.66 3.32 41.32 4 42 C4.14165126 44.42135123 3.99550374 46.77784671 3.875 49.19921875 C4.16302293 55.65273248 6.84408275 61.12137209 9.75 66.75 C10.28016724 67.79063599 10.28016724 67.79063599 10.82104492 68.85229492 C11.87224186 70.90603326 12.93400093 72.95391212 14 75 C14.86818359 76.67255859 14.86818359 76.67255859 15.75390625 78.37890625 C18.68384685 84.20957777 18.68384685 84.20957777 23 89 C23.66 89 24.32 89 25 89 C25.3403125 89.86625 25.3403125 89.86625 25.6875 90.75 C27.34761639 93.59591381 29.39187957 94.99841921 32 97 C33.0828125 98.1446875 33.0828125 98.1446875 34.1875 99.3125 C44.32347076 108.99798317 59.01536106 117.75877823 73.3125 118.25 C77.08701081 118.30104469 77.08701081 118.30104469 80 116 C81.59046359 115.47714536 83.19694763 115.00175157 84.8125 114.5625 C88.80047231 113.41807456 92.35332996 112.01526502 96 110 C96 109.34 96 108.68 96 108 C97.3303125 107.5978125 97.3303125 107.5978125 98.6875 107.1875 C104.29076592 105.27175632 104.29076592 105.27175632 108 101 C108.721875 100.608125 109.44375 100.21625 110.1875 99.8125 C113.33222673 97.78589833 115.24789294 95.55743992 117.59765625 92.6875 C119 91 119 91 121 89.0625 C125.49529316 84.42672892 131 78.53625459 131 72 C131.66 72 132.32 72 133 72 C133.33 70.35 133.66 68.7 134 67 C134.66 67 135.32 67 136 67 C136.80043454 64.56509034 137.59032336 62.12749167 138.375 59.6875 C138.59671875 59.01654297 138.8184375 58.34558594 139.046875 57.65429688 C142.98128788 45.33032713 143.25506015 33.62587887 143.125 20.8125 C143.11494761 19.08008331 143.10582576 17.34766096 143.09765625 15.61523438 C143.07582749 11.41001414 143.04142299 7.205071 143 3 C138.9352215 4.2932277 135.7753049 5.62307813 132.3125 8.125 C128.33014354 11 128.33014354 11 125 11 C124.21927931 13.75288572 123.88844903 16.1541589 123.9375 19.01171875 C123.94910156 20.14963867 123.94910156 20.14963867 123.9609375 21.31054688 C123.98665828 22.87565635 124.01269184 24.44076072 124.0390625 26.00585938 C124.12773937 34.77747932 123.04016668 42.7559806 120.625 51.1875 C120.31175781 52.33895508 120.31175781 52.33895508 119.9921875 53.51367188 C117.95692373 60.75499146 114.93696118 66.33323767 110.20703125 72.16796875 C108.72491385 74.05187308 108.72491385 74.05187308 109 77 C108.0409375 77.4021875 108.0409375 77.4021875 107.0625 77.8125 C104.66868314 78.88667752 104.66868314 78.88667752 104 82 C103.34 82 102.68 82 102 82 C102 82.66 102 83.32 102 84 C101.443125 84.2475 100.88625 84.495 100.3125 84.75 C97.92237624 85.94133329 97.92237624 85.94133329 95.84375 87.8125 C92.46417905 90.41216996 88.97881111 92.32402822 85.1875 94.25 C84.51396484 94.61351562 83.84042969 94.97703125 83.14648438 95.3515625 C77.11414719 98.42257052 72.38992685 99.07395506 65.76953125 96.9765625 C64.79371094 96.53054687 63.81789062 96.08453125 62.8125 95.625 C61.82894531 95.18414062 60.84539062 94.74328125 59.83203125 94.2890625 C58.89746094 93.86367187 57.96289062 93.43828125 57 93 C55.3371147 92.32395659 53.67167703 91.65400162 52 91 C52 90.34 52 89.68 52 89 C50.68 88.67 49.36 88.34 48 88 C48 87.34 48 86.68 48 86 C45.4385343 83.70351351 44.52032428 83 41 83 C40.7525 82.195625 40.505 81.39125 40.25 80.5625 C39.27761141 77.828919 39.27761141 77.828919 36.875 77.1875 C35.946875 77.0946875 35.946875 77.0946875 35 77 C35 76.34 35 75.68 35 75 C34.34 75 33.68 75 33 75 C32.9175 74.154375 32.835 73.30875 32.75 72.4375 C32.02325206 69.10657194 30.85301519 66.7942807 29.109375 63.89453125 C22.07052631 51.87396219 20.56473117 38.90166916 20.3125 25.1875 C20.27833984 23.91068359 20.24417969 22.63386719 20.20898438 21.31835938 C20.12755283 18.21232765 20.05806919 15.10654108 20 12 C18.94425781 11.57074219 17.88851562 11.14148438 16.80078125 10.69921875 C13.67552819 9.36049917 10.9681578 7.78477042 8.1875 5.8125 C5.35449974 3.60920937 5.35449974 3.60920937 2 3 Z " fill="#0C336E" transform="translate(26,72)"/>
<path d="M0 0 C5.61038961 3.22077922 5.61038961 3.22077922 7 6 C7.23952065 9.0147397 7.18520448 12.03929673 7.1875 15.0625 C7.19974609 15.88427734 7.21199219 16.70605469 7.22460938 17.55273438 C7.24320292 25.43019842 6.33137373 32.62666171 2.125 39.4375 C1.63257812 40.26121094 1.14015625 41.08492187 0.6328125 41.93359375 C-1.09775395 44.12371254 -2.43112223 44.9824575 -5 46 C-10.97146242 40.88160364 -14.933049 33.83882365 -16 26 C-16.23517521 22.66587049 -16.32172969 19.34150116 -16.375 16 C-16.41238281 15.11054687 -16.44976562 14.22109375 -16.48828125 13.3046875 C-16.5503245 8.68591243 -16.54655007 6.69028564 -13.59375 2.9609375 C-8.59897116 -0.81523566 -6.33203115 -1.52842131 0 0 Z " fill="#034296" transform="translate(103,79)"/>
<path d="M0 0 C5.61038961 3.22077922 5.61038961 3.22077922 7 6 C7.23952065 9.0147397 7.18520448 12.03929673 7.1875 15.0625 C7.19974609 15.88427734 7.21199219 16.70605469 7.22460938 17.55273438 C7.24320292 25.43019842 6.33137373 32.62666171 2.125 39.4375 C1.63257812 40.26121094 1.14015625 41.08492187 0.6328125 41.93359375 C-1.09775395 44.12371254 -2.43112223 44.9824575 -5 46 C-10.97146242 40.88160364 -14.933049 33.83882365 -16 26 C-16.23517521 22.66587049 -16.32172969 19.34150116 -16.375 16 C-16.41238281 15.11054687 -16.44976562 14.22109375 -16.48828125 13.3046875 C-16.5503245 8.68591243 -16.54655007 6.69028564 -13.59375 2.9609375 C-8.59897116 -0.81523566 -6.33203115 -1.52842131 0 0 Z M-12.54248047 4.31054688 C-15.33227617 7.54427991 -14.8074283 11.18482636 -14.5625 15.25 C-14.54767578 16.05824219 -14.53285156 16.86648437 -14.51757812 17.69921875 C-14.28209873 25.24663531 -13.45181114 32.72982973 -9.0625 39.0625 C-8.55847656 39.81660156 -8.05445312 40.57070312 -7.53515625 41.34765625 C-6.77525391 42.16556641 -6.77525391 42.16556641 -6 43 C-5.01 43 -4.02 43 -3 43 C5.80727017 33.38718683 5.94932888 19.26241027 6 7 C4.60147088 4.20294175 2.86348142 4.09085007 0 3 C-0.99 2.34 -1.98 1.68 -3 1 C-7.50166134 1 -9.07331665 1.67461263 -12.54248047 4.31054688 Z " fill="#083462" transform="translate(103,79)"/>
<path d="M0 0 C0.99 0 1.98 0 3 0 C3.07514606 5.15540517 3.12906334 10.31047931 3.16479492 15.46630859 C3.17971807 17.21376104 3.20006399 18.96117715 3.22631836 20.70849609 C3.43470401 34.9522679 2.73521589 48.07659083 -4 61 C-4.66 61 -5.32 61 -6 61 C-5.52140759 59.39566191 -5.04210442 57.79153584 -4.5625 56.1875 C-4.29566406 55.29417969 -4.02882812 54.40085938 -3.75390625 53.48046875 C-3.19612127 51.64526945 -2.60655425 49.81966274 -2 48 C-1.95593122 46.14635711 -1.96050608 44.29124601 -2 42.4375 C-2.11082803 37.22165605 -2.11082803 37.22165605 -1 35 C-0.84339117 32.37619687 -0.7417092 29.77475148 -0.68359375 27.1484375 C-0.66281265 26.37440582 -0.64203156 25.60037415 -0.62062073 24.80288696 C-0.55516552 22.32701608 -0.49625913 19.85103798 -0.4375 17.375 C-0.39431093 15.69790552 -0.35069652 14.02082193 -0.30664062 12.34375 C-0.19948829 8.22927692 -0.09820955 4.11469586 0 0 Z " fill="#B38C50" transform="translate(138,69)"/>
<path d="M0 0 C2.81270717 0.65411795 5.10362359 1 8 1 C8 1.66 8 2.32 8 3 C7.34 3 6.68 3 6 3 C6 3.66 6 4.32 6 5 C6.804375 5.268125 7.60875 5.53625 8.4375 5.8125 C9.283125 6.204375 10.12875 6.59625 11 7 C11.495 8.485 11.495 8.485 12 10 C7.914728 8.57386868 4.8853812 6.4979532 1.375 4 C-2.84111094 1.43303987 -2.84111094 1.43303987 -7.55859375 1.4921875 C-9.89994772 2.78522854 -12.06588914 4.20534512 -14.23144531 5.77294922 C-17.99321469 8.38292339 -21.9891807 10.6248545 -25.9375 12.9375 C-26.76709229 13.44587402 -27.59668457 13.95424805 -28.45141602 14.47802734 C-29.23959717 14.94805176 -30.02777832 15.41807617 -30.83984375 15.90234375 C-31.54488037 16.33023193 -32.24991699 16.75812012 -32.97631836 17.19897461 C-35.46969832 18.18591871 -36.52489586 17.94345369 -39 17 C-40.68991979 16.0398183 -42.36209288 15.04644066 -44 14 C-42.0625 13.4375 -42.0625 13.4375 -40 13 C-39.67 13.33 -39.34 13.66 -39 14 C-34.49345519 14.78864534 -32.0872215 13.64908178 -28.4375 11.1875 C-26.95500959 10.12964252 -25.47548581 9.06760569 -24 8 C-22.34338239 6.98343919 -20.67888441 5.97934924 -19 5 C-18.113125 4.443125 -17.22625 3.88625 -16.3125 3.3125 C-14 2 -14 2 -12 2 C-12 1.34 -12 0.68 -12 0 C-7.14493828 -2.08074074 -4.85250901 -1.96165258 0 0 Z " fill="#B48F40" transform="translate(104,67)"/>
<path d="M0 0 C0.66 0.33 1.32 0.66 2 1 C2.33 7.93 2.66 14.86 3 22 C-0.63090122 18.36909878 -0.96377893 17.14096378 -1.125 12.0625 C-1.09369665 9.22954645 -0.90352076 6.71056227 0 4 C-0.825 4.515625 -1.65 5.03125 -2.5 5.5625 C-7.06295437 7.43657054 -9.21310016 7.02015898 -14 6 C-14.99 5.34 -15.98 4.68 -17 4 C-17 4.99 -17 5.98 -17 7 C-17.63514826 9.34210921 -18.2986716 11.67684969 -19 14 C-19.66 14 -20.32 14 -21 14 C-21 10.04 -21 6.08 -21 2 C-15.30146915 0.86029383 -15.49406353 1.30356188 -11 4 C-7.72700222 3.83215396 -5.75096905 2.87304305 -2.8125 1.375 C-1.884375 0.92125 -0.95625 0.4675 0 0 Z " fill="#B69449" transform="translate(77,89)"/>
<path d="M0 0 C-2.62214328 1.50519387 -5.24744208 3.00431319 -7.875 4.5 C-8.62136719 4.92925781 -9.36773437 5.35851563 -10.13671875 5.80078125 C-10.85214844 6.20683594 -11.56757812 6.61289062 -12.3046875 7.03125 C-12.96452637 7.40830078 -13.62436523 7.78535156 -14.30419922 8.17382812 C-16 9 -16 9 -18 9 C-15.43015197 12.14092537 -13.01143103 13.39450098 -9 14 C-6.71829126 12.88251508 -4.77333251 11.57981851 -2.734375 10.06640625 C-2.16203125 9.71449219 -1.5896875 9.36257812 -1 9 C-0.34 9.33 0.32 9.66 1 10 C1 11.32 1 12.64 1 14 C-0.98 14 -2.96 14 -5 14 C-5.33 15.32 -5.66 16.64 -6 18 C-7.79260132 17.94004678 -9.58425795 17.8512759 -11.375 17.75 C-12.87160156 17.68039063 -12.87160156 17.68039063 -14.3984375 17.609375 C-17 17 -17 17 -18.30078125 15.08203125 C-18.53152344 14.39496094 -18.76226562 13.70789062 -19 13 C-19.268125 12.319375 -19.53625 11.63875 -19.8125 10.9375 C-20 9 -20 9 -18.9375 7.4375 C-17 6 -17 6 -13.9375 4.5 C-10.76974251 3.18410745 -10.76974251 3.18410745 -9 0 C-5.58721772 -1.07772072 -3.38966521 -0.95199108 0 0 Z " fill="#BB9445" transform="translate(78,44)"/>
<path d="M0 0 C0.33 0 0.66 0 1 0 C1.02492652 5.63761075 1.04296617 11.27518861 1.05493164 16.9128418 C1.05992583 18.82625895 1.06672348 20.73967235 1.07543945 22.65307617 C1.20019611 50.76735604 1.20019611 50.76735604 -2.0625 57.1875 C-2.42472656 57.92355469 -2.78695312 58.65960938 -3.16015625 59.41796875 C-3.57587891 60.20107422 -3.57587891 60.20107422 -4 61 C-4.66 61 -5.32 61 -6 61 C-5.52140759 59.39566191 -5.04210442 57.79153584 -4.5625 56.1875 C-4.29566406 55.29417969 -4.02882812 54.40085938 -3.75390625 53.48046875 C-3.19612127 51.64526945 -2.60655425 49.81966274 -2 48 C-1.95593122 46.14635711 -1.96050608 44.29124601 -2 42.4375 C-2.11082803 37.22165605 -2.11082803 37.22165605 -1 35 C-0.84339117 32.37619687 -0.7417092 29.77475148 -0.68359375 27.1484375 C-0.66281265 26.37440582 -0.64203156 25.60037415 -0.62062073 24.80288696 C-0.55516552 22.32701608 -0.49625913 19.85103798 -0.4375 17.375 C-0.39431093 15.69790552 -0.35069652 14.02082193 -0.30664062 12.34375 C-0.19948829 8.22927692 -0.09820955 4.11469586 0 0 Z " fill="#C1923C" transform="translate(138,69)"/>
<path d="M0 0 C4.48978953 0.23630471 7.30130016 1.68795705 11 4.0625 C14.83925284 6.49248027 17.33783224 7.73613175 22 7 C22.061875 7.61875 22.12375 8.2375 22.1875 8.875 C22.828919 11.27761141 22.828919 11.27761141 25.5625 12.25 C26.366875 12.4975 27.17125 12.745 28 13 C28 13.99 28 14.98 28 16 C23.86402667 14.73827404 20.3183243 13.19957851 16.6015625 10.99609375 C15.62832031 10.42052734 14.65507813 9.84496094 13.65234375 9.25195312 C12.65332031 8.65318359 11.65429688 8.05441406 10.625 7.4375 C9.09166016 6.53354492 9.09166016 6.53354492 7.52734375 5.61132812 C1.97648387 2.3097152 1.97648387 2.3097152 0 1 C0 0.67 0 0.34 0 0 Z " fill="#AC8B48" transform="translate(32,64)"/>
<path d="M0 0 C0 0.66 0 1.32 0 2 C-0.99 2 -1.98 2 -3 2 C-3.33 2.99 -3.66 3.98 -4 5 C-5.31266518 6.35368596 -6.64567325 7.68799596 -8 9 C-8.33 9.66 -8.66 10.32 -9 11 C-11.29296875 11.5625 -11.29296875 11.5625 -14.1875 12 C-18.29538136 12.67394929 -22.09161517 13.52115169 -26 15 C-23.65825879 12.42651653 -21.19697334 10.80587715 -18.18359375 9.08203125 C-17.25482422 8.55029297 -16.32605469 8.01855469 -15.36914062 7.47070312 C-14.40169922 6.92349609 -13.43425781 6.37628906 -12.4375 5.8125 C-10.98053711 4.97428711 -10.98053711 4.97428711 -9.49414062 4.11914062 C-2.25672505 0 -2.25672505 0 0 0 Z " fill="#BD9C50" transform="translate(61,28)"/>
<path d="M0 0 C3.08168051 0.63711148 5.46517258 1.68305015 8.1875 3.25 C10.62637318 4.64941977 13.05962746 6.03122908 15.55078125 7.3359375 C16.76314453 7.97402344 16.76314453 7.97402344 18 8.625 C18.7425 9.00914063 19.485 9.39328125 20.25 9.7890625 C22 11 22 11 23 14 C23.99 14.33 24.98 14.66 26 15 C25.01 15.495 25.01 15.495 24 16 C21.89282227 15.04370117 21.89282227 15.04370117 19.31640625 13.54296875 C18.38892578 13.00736328 17.46144531 12.47175781 16.50585938 11.91992188 C15.53455078 11.34822266 14.56324219 10.77652344 13.5625 10.1875 C12.59505859 9.62740234 11.62761719 9.06730469 10.63085938 8.49023438 C7.02950834 6.39840175 3.46604022 4.31069348 0 2 C0 1.34 0 0.68 0 0 Z " fill="#B69447" transform="translate(100,31)"/>
<path d="M0 0 C0.66 0.33 1.32 0.66 2 1 C-1.21388556 2.99115918 -4.43066055 4.97707162 -7.65625 6.94921875 C-9.53990373 8.10449703 -11.41897472 9.26759858 -13.28125 10.45703125 C-17.40686396 13.01744518 -17.40686396 13.01744518 -20.125 12.9375 C-22.50319007 11.74840497 -24.7597182 10.43129115 -27 9 C-25.0625 8.4375 -25.0625 8.4375 -23 8 C-22.67 8.33 -22.34 8.66 -22 9 C-17.50961901 9.78581667 -15.16771152 8.67725291 -11.5625 6.1875 C-10.799375 5.64351563 -10.03625 5.09953125 -9.25 4.5390625 C-6.25492669 2.49034916 -3.42569223 1.18850547 0 0 Z " fill="#AF8E4E" transform="translate(87,72)"/>
<path d="M0 0 C0.66 0.33 1.32 0.66 2 1 C1.34 1.66 0.68 2.32 0 3 C0 3.99 0 4.98 0 6 C-1.65 6.33 -3.3 6.66 -5 7 C-4.67 10.63 -4.34 14.26 -4 18 C-3.01 18.33 -2.02 18.66 -1 19 C-1 19.66 -1 20.32 -1 21 C-5.875 19.125 -5.875 19.125 -7 18 C-7.5472277 13.59730444 -7.68765117 9.38914848 -7 5 C-4.86383571 2.30309258 -3.16857246 1.52770458 0 0 Z " fill="#B69047" transform="translate(33,43)"/>
<path d="M0 0 C0.66 0 1.32 0 2 0 C2 0.99 2 1.98 2 3 C2.66 3.33 3.32 3.66 4 4 C4.9296875 6.07421875 4.9296875 6.07421875 5.875 8.6875 C8.50754943 15.969112 8.50754943 15.969112 14 21 C14.625 23.5625 14.625 23.5625 15 26 C7.08853814 20.34895582 2.88593175 12.13878386 0 3 C0 2.01 0 1.02 0 0 Z " fill="#AD8C4A" transform="translate(59,118)"/>
<path d="M0 0 C6.08882416 1.59806348 11.0664755 4.8611283 16.375 8.125 C17.30183594 8.68832031 18.22867188 9.25164063 19.18359375 9.83203125 C21.45903155 11.21606043 23.7309763 12.60548922 26 14 C24 15 24 15 21.8359375 14.44140625 C20.61777344 14.00634766 20.61777344 14.00634766 19.375 13.5625 C18.14910156 13.13130859 18.14910156 13.13130859 16.8984375 12.69140625 C16.27195313 12.46324219 15.64546875 12.23507813 15 12 C15 11.34 15 10.68 15 10 C14.360625 9.87625 13.72125 9.7525 13.0625 9.625 C12.381875 9.41875 11.70125 9.2125 11 9 C10.67 8.34 10.34 7.68 10 7 C8.6078125 6.5359375 8.6078125 6.5359375 7.1875 6.0625 C4.1779166 5.05930553 2.31333481 4.13538598 0 2 C0 1.34 0 0.68 0 0 Z " fill="#BC984B" transform="translate(113,15)"/>
<path d="M0 0 C0.99 0.33 1.98 0.66 3 1 C3 14.2 3 27.4 3 41 C1.68 40.67 0.36 40.34 -1 40 C-0.85780029 39.29182129 -0.71560059 38.58364258 -0.5690918 37.85400391 C0.89627559 29.96040421 1.27432826 22.39061942 1.1875 14.375 C1.18685547 13.20582031 1.18621094 12.03664063 1.18554688 10.83203125 C1.42910066 5.24244608 1.42910066 5.24244608 0 0 Z " fill="#B99C62" transform="translate(116,77)"/>
<path d="M0 0 C6.9064141 3.34961084 13.57269512 6.79753142 20 11 C18.68 11.33 17.36 11.66 16 12 C16 11.34 16 10.68 16 10 C15.01 10.99 14.02 11.98 13 13 C10.5625 12.1875 10.5625 12.1875 8 11 C7.67 10.01 7.34 9.02 7 8 C7.33 7.67 7.66 7.34 8 7 C7.4225 6.66226563 6.845 6.32453125 6.25 5.9765625 C5.13625 5.30753906 5.13625 5.30753906 4 4.625 C3.2575 4.18414062 2.515 3.74328125 1.75 3.2890625 C1.1725 2.86367188 0.595 2.43828125 0 2 C0 1.34 0 0.68 0 0 Z " fill="#BC9442" transform="translate(113,50)"/>
<path d="M0 0 C5.75 1.75 5.75 1.75 8 4 C8.73612025 8.42275529 8.82975906 12.58917553 8 17 C5.7112147 19.62169952 3.28911452 20.92344244 0 22 C-0.66 22 -1.32 22 -2 22 C-2 21.34 -2 20.68 -2 20 C0.31 18.68 2.62 17.36 5 16 C5 12.04 5 8.08 5 4 C2.525 3.01 2.525 3.01 0 2 C0 1.34 0 0.68 0 0 Z " fill="#B18F44" transform="translate(163,44)"/>
<path d="M0 0 C1.32 0 2.64 0 4 0 C5.45606519 4.52092968 4.27032841 7.51648796 3 12 C3.66 12 4.32 12 5 12 C5 13.65 5 15.3 5 17 C4.67 16.01 4.34 15.02 4 14 C3.01 14 2.02 14 1 14 C0.06380187 10.84493858 -0.1057123 8.03413498 -0.0625 4.75 C-0.05347656 3.85796875 -0.04445312 2.9659375 -0.03515625 2.046875 C-0.02355469 1.37140625 -0.01195312 0.6959375 0 0 Z " fill="#C09543" transform="translate(57,104)"/>
<path d="M0 0 C2 3 2 3 3.19140625 5.41796875 C6.70063516 12.50641119 10.76400505 17.16363947 17 22 C16.67 22.66 16.34 23.32 16 24 C11.99245833 22.66415278 10.62523764 20.23106172 8 17 C7.34 16.67 6.68 16.34 6 16 C6 15.01 6 14.02 6 13 C5.34 13 4.68 13 4 13 C-0.59225513 4.738041 -0.59225513 4.738041 0 0 Z " fill="#AC8F4D" transform="translate(80,113)"/>
<path d="M0 0 C2.3125 -0.3125 2.3125 -0.3125 5 0 C7.69352006 2.97216006 8.17370973 5.43053804 8.1875 9.3125 C8.125625 10.529375 8.06375 11.74625 8 13 C8.78375 12.505 9.5675 12.01 10.375 11.5 C13 10 13 10 15 10 C15 10.66 15 11.32 15 12 C11.63316085 14.43160605 10.26649636 15 6 15 C5.98582031 14.25234375 5.97164062 13.5046875 5.95703125 12.734375 C5.81724378 6.40090569 5.81724378 6.40090569 2.4375 1.3125 C1.633125 0.879375 0.82875 0.44625 0 0 Z " fill="#9E8950" transform="translate(143,57)"/>
<path d="M0 0 C15.28875476 8.19663278 15.28875476 8.19663278 21 12 C21 12.33 21 12.66 21 13 C19.35 13 17.7 13 16 13 C16 12.01 16 11.02 16 10 C15.43152344 9.82984375 14.86304688 9.6596875 14.27734375 9.484375 C9.0677886 7.84932263 4.64636859 5.86690828 0 3 C0 2.01 0 1.02 0 0 Z " fill="#BA994A" transform="translate(140,30)"/>
<path d="M0 0 C0.66 0 1.32 0 2 0 C1.51300383 4.38296556 0.16604109 6.03183648 -3 9 C-3.33 9.99 -3.66 10.98 -4 12 C-4.66 12 -5.32 12 -6 12 C-6 12.66 -6 13.32 -6 14 C-6.639375 14.28875 -7.27875 14.5775 -7.9375 14.875 C-10.15206079 15.82823451 -10.15206079 15.82823451 -11 18 C-12.32 17.67 -13.64 17.34 -15 17 C-14.25556641 16.54173828 -14.25556641 16.54173828 -13.49609375 16.07421875 C-7.86748498 12.28265117 -4.80720534 8.05907909 -1.4453125 2.1953125 C-0.96835938 1.47085938 -0.49140625 0.74640625 0 0 Z " fill="#B59552" transform="translate(114,118)"/>
<path d="M0 0 C0.66 0.33 1.32 0.66 2 1 C-3.38560353 6.6933523 -7.1124392 9.22670973 -15 10 C-12.38221206 7.0447272 -9.32416665 5.24167273 -5.9375 3.25 C-4.87402344 2.61578125 -3.81054688 1.9815625 -2.71484375 1.328125 C-1.81894531 0.88984375 -0.92304687 0.4515625 0 0 Z " fill="#BE9A57" transform="translate(85,13)"/>
<path d="M0 0 C0.61746094 0.19207031 1.23492187 0.38414062 1.87109375 0.58203125 C-9.78195334 7.66236366 -9.78195334 7.66236366 -16.12890625 6.58203125 C-16.78890625 5.92203125 -17.44890625 5.26203125 -18.12890625 4.58203125 C-17.02482422 4.41767578 -17.02482422 4.41767578 -15.8984375 4.25 C-11.19782916 3.48622876 -3.99408742 -0.78416028 0 0 Z " fill="#AA8A49" transform="translate(111.12890625,153.41796875)"/>
<path d="M0 0 C5.14808788 1.02961758 7.62920538 2.34324249 12 5 C11.67 5.66 11.34 6.32 11 7 C9.88625 6.5359375 9.88625 6.5359375 8.75 6.0625 C5.8356784 4.87150994 5.8356784 4.87150994 2 4 C1.67 6.97 1.34 9.94 1 13 C0.67 13 0.34 13 0 13 C0 8.71 0 4.42 0 0 Z " fill="#0B2B63" transform="translate(26,72)"/>
<path d="M0 0 C1.2375 0.86625 1.2375 0.86625 2.5 1.75 C-0.51031744 2.68423645 -1.36650268 2.79449911 -4.5 1.75 C-4.83 2.74 -5.16 3.73 -5.5 4.75 C-9.955 5.245 -9.955 5.245 -14.5 5.75 C-10.19248653 1.44248653 -6.12730487 -2.18832317 0 0 Z " fill="#C5984D" transform="translate(101.5,7.25)"/>
<path d="M0 0 C3.17958912 0.82669317 5.41711222 1.98069356 8.125 3.8125 C6.4375 4.4375 6.4375 4.4375 4.125 4.8125 C3.3825 4.461875 2.64 4.11125 1.875 3.75 C-2.19623514 2.36207893 -4.80455948 3.57067069 -8.875 4.8125 C-4.03034884 -0.26284884 -4.03034884 -0.26284884 0 0 Z " fill="#B99448" transform="translate(98.875,42.1875)"/>
<path d="M0 0 C3.24140159 1.37136221 5.56125075 3.33969859 8.20703125 5.625 C11.54033322 8.18125772 15.28513432 10.06001459 19 12 C17.30859375 12.69140625 17.30859375 12.69140625 15 13 C8.9196 9.90542244 4.00282954 5.47053371 0 0 Z " fill="#A78D3E" transform="translate(74,144)"/>
<path d="M0 0 C4.29211536 0.47690171 6.02083932 1.02083932 9 4 C11.30988315 4.74386068 13.64315944 5.42190703 16 6 C16.33 7.32 16.66 8.64 17 10 C12.97683781 8.51463956 9.38707358 6.60123107 5.6875 4.4375 C4.61886719 3.81746094 3.55023438 3.19742188 2.44921875 2.55859375 C1.64097656 2.04425781 0.83273438 1.52992187 0 1 C0 0.67 0 0.34 0 0 Z " fill="#BD994D" transform="translate(126,47)"/>
<path d="M0 0 C0.061875 0.61875 0.12375 1.2375 0.1875 1.875 C0.828919 4.27761141 0.828919 4.27761141 3.5625 5.25 C4.366875 5.4975 5.17125 5.745 6 6 C6 6.99 6 7.98 6 9 C0.33289301 7.68206814 -1.66437233 5.51290803 -5 1 C-2 0 -2 0 0 0 Z " fill="#BA9044" transform="translate(54,71)"/>
<path d="M0 0 C0.33 0 0.66 0 1 0 C1.28307925 7.24997422 0.50974035 13.90961228 -1 21 C-1.33 21 -1.66 21 -2 21 C-2.22424141 13.63740707 -1.90120099 7.12950371 0 0 Z " fill="#A98E57" transform="translate(140,97)"/>
<path d="M0 0 C0.33 0.66 0.66 1.32 1 2 C0.59007812 2.54269531 0.18015625 3.08539063 -0.2421875 3.64453125 C-0.78101563 4.35996094 -1.31984375 5.07539063 -1.875 5.8125 C-2.40867188 6.52019531 -2.94234375 7.22789062 -3.4921875 7.95703125 C-4.70814781 9.60456297 -5.86416141 11.29624211 -7 13 C-7.66 13 -8.32 13 -9 13 C-8.4409112 9.75728494 -7.5867822 8.06942576 -5 6 C-4.34 6 -3.68 6 -3 6 C-3 4.68 -3 3.36 -3 2 C-2.01 1.34 -1.02 0.68 0 0 Z " fill="#A58852" transform="translate(131,132)"/>
<path d="M0 0 C0 0.66 0 1.32 0 2 C-0.66 2 -1.32 2 -2 2 C-2 2.66 -2 3.32 -2 4 C-1.195625 4.268125 -0.39125 4.53625 0.4375 4.8125 C1.283125 5.204375 2.12875 5.59625 3 6 C3.33 6.99 3.66 7.98 4 9 C1.0280615 7.87548273 -1.33440687 6.77706209 -4 5 C-4.6875 2.875 -4.6875 2.875 -5 1 C-3 0 -3 0 0 0 Z " fill="#C09743" transform="translate(112,68)"/>
<path d="M0 0 C0.66 0.33 1.32 0.66 2 1 C1.34 1.66 0.68 2.32 0 3 C0 3.99 0 4.98 0 6 C-1.65 6.33 -3.3 6.66 -5 7 C-5.33 6.01 -5.66 5.02 -6 4 C-4.02 2.68 -2.04 1.36 0 0 Z " fill="#C29B4C" transform="translate(33,43)"/>
<path d="M0 0 C0.66 0.33 1.32 0.66 2 1 C2 6.61 2 12.22 2 18 C1.67 18 1.34 18 1 18 C1 13.05 1 8.1 1 3 C-0.65 3 -2.3 3 -4 3 C-2.68 2.01 -1.36 1.02 0 0 Z " fill="#A78C59" transform="translate(77,89)"/>
<path d="M0 0 C1.21386936 3.64160808 0.6674695 4.33165469 -0.9375 7.6875 C-1.31777344 8.49574219 -1.69804687 9.30398437 -2.08984375 10.13671875 C-2.39019531 10.75160156 -2.69054687 11.36648437 -3 12 C-3.66 12 -4.32 12 -5 12 C-4.54965877 10.37276701 -4.08944646 8.74826336 -3.625 7.125 C-3.36976563 6.22007813 -3.11453125 5.31515625 -2.8515625 4.3828125 C-2 2 -2 2 0 0 Z " fill="#A78A47" transform="translate(137,118)"/>
<path d="M0 0 C2.3125 -0.3125 2.3125 -0.3125 5 0 C7.69352006 2.97216006 8.17370973 5.43053804 8.1875 9.3125 C8.125625 10.529375 8.06375 11.74625 8 13 C7.67 13 7.34 13 7 13 C6.91363281 12.39671875 6.82726562 11.7934375 6.73828125 11.171875 C5.78960711 5.71717733 5.78960711 5.71717733 2.375 1.4375 C1.59125 0.963125 0.8075 0.48875 0 0 Z " fill="#AF9040" transform="translate(143,57)"/>
<path d="M0 0 C1.6396875 0.2475 1.6396875 0.2475 3.3125 0.5 C6.87525873 1.06718184 6.87525873 1.06718184 10 1 C9.01 2.485 9.01 2.485 8 4 C5.36 3.67 2.72 3.34 0 3 C0 2.01 0 1.02 0 0 Z " fill="#B38A44" transform="translate(63,92)"/>
<path d="M0 0 C0 0.66 0 1.32 0 2 C-6.45 6.09326923 -6.45 6.09326923 -9.234375 5.62109375 C-9.81703125 5.41613281 -10.3996875 5.21117187 -11 5 C-9.54462432 4.16151196 -8.08559627 3.32936066 -6.625 2.5 C-5.81289062 2.0359375 -5.00078125 1.571875 -4.1640625 1.09375 C-2 0 -2 0 0 0 Z " fill="#AD924C" transform="translate(90,47)"/>
<path d="M0 0 C-1 3 -1 3 -3.9375 4.75 C-5.4534375 5.36875 -5.4534375 5.36875 -7 6 C-7.66 5.67 -8.32 5.34 -9 5 C-3.375 0 -3.375 0 0 0 Z " fill="#B58D4C" transform="translate(97,31)"/>
<path d="M0 0 C3.3 1.65 6.6 3.3 10 5 C6 6 6 6 2.75 4.1875 C1.8425 3.465625 0.935 2.74375 0 2 C0 1.34 0 0.68 0 0 Z " fill="#AD8F4D" transform="translate(113,50)"/>
<path d="M0 0 C1.98 0.99 3.96 1.98 6 3 C2.42355152 4.2380014 -0.33694766 3.74926071 -4 3 C-2.68 2.01 -1.36 1.02 0 0 Z " fill="#B2944A" transform="translate(98,6)"/>
<path d="M0 0 C0.66 0.33 1.32 0.66 2 1 C-0.75 7.75 -0.75 7.75 -3 10 C-2.69201674 8.51988629 -2.378482 7.04092675 -2.0625 5.5625 C-1.88847656 4.73878906 -1.71445313 3.91507812 -1.53515625 3.06640625 C-1 1 -1 1 0 0 Z " fill="#023782" transform="translate(150,113)"/>
<path d="M0 0 C0.82638376 2.89234315 1 4.88742431 1 8 C-0.32 7.67 -1.64 7.34 -3 7 C-2.67 5.35 -2.34 3.7 -2 2 C-1.34 2 -0.68 2 0 2 C0 1.34 0 0.68 0 0 Z " fill="#B29345" transform="translate(118,110)"/>
<path d="M0 0 C0.33 0.66 0.66 1.32 1 2 C-0.1875 3.5 -0.1875 3.5 -2 5 C-4.6875 5.1875 -4.6875 5.1875 -7 5 C-2.25 1.125 -2.25 1.125 0 0 Z " fill="#BA9D54" transform="translate(68,23)"/>
<path d="M0 0 C0 0.99 0 1.98 0 3 C-6.75 5.125 -6.75 5.125 -9 4 C-6.03 2.68 -3.06 1.36 0 0 Z " fill="#BB9644" transform="translate(79,18)"/>
</svg>
