<svg version="1.1" id="Layer_1" xmlns="http://www.w3.org/2000/svg" xmlns:xlink="http://www.w3.org/1999/xlink" x="0px" y="0px" width="100%" viewBox="0 0 833 833" enable-background="new 0 0 833 833" xml:space="preserve">

<path fill="#AEB8BA" opacity="1.000000" stroke="none" d="
M377.468689,834.000000 
	C376.177277,833.321350 375.434540,832.192688 374.520050,832.030090 
	C353.318420,828.260376 331.780609,825.843262 310.973541,820.548645 
	C291.451721,815.581055 272.231689,808.666748 253.737473,800.632568 
	C234.696869,792.361084 216.254272,782.442993 198.378311,771.847778 
	C184.550812,763.652222 172.001160,753.300598 159.079987,743.230591 
	C160.052017,740.907349 160.880096,739.283569 161.594635,737.611267 
	C167.275177,724.316467 172.288330,710.690735 178.724106,697.773315 
	C196.218384,662.659851 221.450485,633.713318 252.216522,609.674744 
	C275.315247,591.626892 300.981445,578.022522 328.798462,568.601501 
	C366.046509,555.986572 404.205719,551.731995 443.337006,555.861023 
	C471.686584,558.852295 498.921661,565.855652 524.870789,577.719727 
	C548.919128,588.714783 571.025696,602.663574 590.939331,620.170715 
	C610.580505,637.438354 627.451782,657.005493 641.480713,679.022400 
	C653.421692,697.762512 662.675964,717.799194 669.850342,738.829773 
	C670.312866,740.185608 672.535950,740.940918 673.940063,741.975586 
	C668.526978,746.475037 663.398987,751.382324 657.650024,755.401428 
	C635.681396,770.760254 612.777466,784.554321 588.505798,796.045532 
	C564.314148,807.498779 539.080261,816.086609 513.204895,822.522949 
	C497.714325,826.376160 481.720764,828.203247 465.958313,830.969727 
	C461.706299,831.715942 457.472626,832.566772 453.615295,833.684814 
	C428.645782,834.000000 403.291534,834.000000 377.468689,834.000000 
z" data-index="1"></path>
<path fill="#D1D9DC" opacity="1.000000" stroke="none" d="
M674.249634,741.825073 
	C672.535950,740.940918 670.312866,740.185608 669.850342,738.829773 
	C662.675964,717.799194 653.421692,697.762512 641.480713,679.022400 
	C627.451782,657.005493 610.580505,637.438354 590.939331,620.170715 
	C571.025696,602.663574 548.919128,588.714783 524.870789,577.719727 
	C498.921661,565.855652 471.686584,558.852295 443.337006,555.861023 
	C404.205719,551.731995 366.046509,555.986572 328.798462,568.601501 
	C300.981445,578.022522 275.315247,591.626892 252.216522,609.674744 
	C221.450485,633.713318 196.218384,662.659851 178.724106,697.773315 
	C172.288330,710.690735 167.275177,724.316467 161.594635,737.611267 
	C160.880096,739.283569 160.052017,740.907349 159.105896,742.877441 
	C154.732880,740.112549 150.226151,737.359863 146.381271,733.876587 
	C130.362839,719.364990 114.834030,704.415344 100.885033,687.776245 
	C88.108765,672.536133 75.912857,656.899963 66.002472,639.733459 
	C56.261951,622.861206 47.258167,605.501099 39.009602,587.851013 
	C33.037121,575.071289 28.449789,561.595093 23.936445,548.196472 
	C19.475422,534.953308 15.213039,521.570129 12.112873,507.963715 
	C9.443629,496.248535 8.771955,484.092834 6.794743,472.202179 
	C3.078515,449.853455 3.578771,427.331757 3.991416,404.852570 
	C4.226337,392.055115 5.105568,379.165833 7.060323,366.529175 
	C9.636014,349.878418 13.102562,333.326233 17.062370,316.943481 
	C19.442062,307.098083 23.375603,297.614777 26.818895,288.043579 
	C30.687874,277.289124 34.361393,266.431976 38.915565,255.965729 
	C43.318207,245.847702 48.356468,235.956848 53.796059,226.351624 
	C61.029076,213.579559 68.358459,200.792236 76.686684,188.729675 
	C85.214775,176.377625 94.295128,164.249939 104.403725,153.184174 
	C118.263397,138.012161 132.748291,123.299225 148.007248,109.545578 
	C167.524994,91.953255 189.268723,77.233543 212.126526,64.171120 
	C234.774658,51.228500 258.543335,40.720104 283.175659,32.438557 
	C303.691528,25.540983 324.583344,19.556572 346.224365,16.954109 
	C360.205078,15.272838 374.150970,13.003875 388.183014,12.125264 
	C404.570831,11.099150 421.079987,10.408818 437.453918,11.226187 
	C452.932251,11.998849 468.291779,15.013259 483.724762,16.864758 
	C507.170624,19.677557 529.660522,26.298248 551.855957,33.980576 
	C577.077271,42.710243 601.299255,53.825634 623.955139,67.876724 
	C641.406128,78.699791 658.666016,90.078796 674.715515,102.839844 
	C689.064941,114.249168 702.265747,127.302711 714.828369,140.704086 
	C727.647034,154.378662 740.036560,168.678055 750.840515,183.957886 
	C762.234314,200.071838 772.420166,217.208710 781.490295,234.748566 
	C790.215820,251.622025 797.631958,269.293304 804.146667,287.152771 
	C809.788696,302.619415 814.160400,318.669464 817.619812,334.778137 
	C820.999329,350.514709 823.375916,366.584503 824.628601,382.630127 
	C826.199158,402.747192 826.774658,422.993378 826.615723,443.174713 
	C826.520813,455.226990 824.467163,467.299438 822.797119,479.293640 
	C821.136841,491.218109 819.440979,503.193481 816.695984,514.896790 
	C813.295349,529.395325 809.759460,543.994202 804.578979,557.916016 
	C793.272339,588.300537 779.716675,617.630798 761.653931,644.817871 
	C747.467163,666.170898 732.106567,686.565491 714.551697,705.137146 
	C702.715149,717.659363 689.373291,728.759399 676.680054,740.468750 
	C676.097778,741.005859 675.271729,741.278748 674.249634,741.825073 
M304.000580,198.499573 
	C291.244690,208.883972 280.737061,221.247513 271.560852,234.852386 
	C254.782379,259.728607 245.365189,287.275055 243.243149,317.001495 
	C241.760132,337.776520 243.387985,358.399292 249.428650,378.745636 
	C256.031616,400.985870 266.462311,421.000610 280.746613,438.959015 
	C293.248352,454.676270 308.250793,467.764954 325.577820,478.225433 
	C348.965942,492.345062 374.180908,500.925293 401.317078,502.824951 
	C442.714203,505.722900 480.865112,495.844208 515.020081,471.670685 
	C534.449768,457.919098 550.672852,441.037384 562.836853,420.717163 
	C576.561218,397.790283 585.167725,373.049530 587.342407,346.020203 
	C589.229065,322.570587 586.988342,299.743103 579.813660,277.553650 
	C573.018555,256.538086 562.590637,237.392700 548.180908,220.313110 
	C530.901550,199.832245 510.372437,183.727127 486.092926,172.829758 
	C456.298279,159.457016 424.825470,154.958771 392.425110,159.310410 
	C359.501587,163.732285 330.086029,176.619995 304.000580,198.499573 
z" data-index="2" style="opacity: 1;"></path>
<path fill="#AEB8BA" opacity="1.000000" stroke="none" d="
M304.263184,198.256744 
	C330.086029,176.619995 359.501587,163.732285 392.425110,159.310410 
	C424.825470,154.958771 456.298279,159.457016 486.092926,172.829758 
	C510.372437,183.727127 530.901550,199.832245 548.180908,220.313110 
	C562.590637,237.392700 573.018555,256.538086 579.813660,277.553650 
	C586.988342,299.743103 589.229065,322.570587 587.342407,346.020203 
	C585.167725,373.049530 576.561218,397.790283 562.836853,420.717163 
	C550.672852,441.037384 534.449768,457.919098 515.020081,471.670685 
	C480.865112,495.844208 442.714203,505.722900 401.317078,502.824951 
	C374.180908,500.925293 348.965942,492.345062 325.577820,478.225433 
	C308.250793,467.764954 293.248352,454.676270 280.746613,438.959015 
	C266.462311,421.000610 256.031616,400.985870 249.428650,378.745636 
	C243.387985,358.399292 241.760132,337.776520 243.243149,317.001495 
	C245.365189,287.275055 254.782379,259.728607 271.560852,234.852386 
	C280.737061,221.247513 291.244690,208.883972 304.263184,198.256744 
z" data-index="3" style="opacity: 1;"></path>
</svg>